<?xml version="1.0" encoding="utf-8"?>
<!-- Generator: Adobe Illustrator 24.3.0, SVG Export Plug-In . SVG Version: 6.00 Build 0)  -->
<svg version="1.1" id="Слой_1" xmlns="http://www.w3.org/2000/svg" xmlns:xlink="http://www.w3.org/1999/xlink" x="0px" y="0px"
	 viewBox="0 0 707 503" style="enable-background:new 0 0 707 503;" xml:space="preserve">
<image style="overflow:visible;" width="706" height="498" xlink:href="657B05E0.jpg"  transform="matrix(1 0 0 1 -723.6802 2.5)">
</image>
<image style="overflow:visible;" width="707" height="499" xlink:href="657B05E1.jpg"  transform="matrix(1 0 0 1 717.0867 514.5425)">
</image>
<image style="overflow:visible;" width="708" height="499" xlink:href="657B05E7.jpg"  transform="matrix(1 0 0 1 -0.5 514.5425)">
</image>
<image style="overflow:visible;" width="706" height="495" xlink:href="657B05E2.jpg"  transform="matrix(1 0 0 1 717.5867 4)">
</image>
<image style="overflow:visible;" width="707" height="503" xlink:href="657B05E3.jpg" >
</image>
<image style="overflow:visible;" width="706" height="498" xlink:href="657B05EE.jpg"  transform="matrix(1 0 0 1 -723.6802 515.0425)">
</image>
<image style="overflow:visible;" width="707" height="501" xlink:href="657B05EF.jpg"  transform="matrix(1 0 0 1 10.0867 1035.8292)">
</image>
<image style="overflow:visible;" width="707" height="501" xlink:href="657B05E4.jpg"  transform="matrix(1 0 0 1 -724.1802 1035.8292)">
</image>
<image style="overflow:visible;" width="709" height="503" xlink:href="657B05E5.jpg"  transform="matrix(1 0 0 1 737.0977 1029.0851)">
</image>
</svg>
